<?xml version="1.0" encoding="utf-8"?>
<svg viewBox="501.331 218.527 757.101 600.057" width="757.101" height="600.057" xmlns="http://www.w3.org/2000/svg">
  <ellipse cx="659.331" cy="806.584" rx="158" ry="12" fill="#e6e6e6"/>
  <path d="M 586.204 340.946 C 613.701 329.251 647.949 336.661 681.395 341.804 C 681.707 335.576 685.479 327.996 681.527 323.651 C 676.726 318.372 677.168 312.826 680.057 307.247 C 687.445 292.982 676.86 277.804 666.173 265.183 C 661.287 259.426 653.948 256.346 646.418 256.891 L 626.62 258.305 C 616.755 259.01 608.363 265.764 605.567 275.251 C 600.84 281.68 598.31 288.092 599.903 294.47 C 592.822 299.309 591.633 305.15 594.814 311.734 C 597.512 315.88 597.484 319.916 594.692 323.84 C 591.025 328.843 588.216 334.421 586.381 340.346 L 586.204 340.946 Z" fill="#2f2e41"/>
  <path d="M 1239.641 695.49 L 679.223 695.49 C 668.845 695.49 660.432 687.077 660.432 676.699 C 863.584 653.089 1062.917 653.089 1258.432 676.699 C 1258.432 687.077 1250.019 695.49 1239.641 695.49 Z" fill="#2f2e41"/>
  <path d="M 1258.432 677.804 L 660.432 676.699 L 729.738 560.083 L 730.07 559.531 L 730.07 302.523 C 730.069 289.404 740.705 278.768 753.824 278.769 L 1161.724 278.769 C 1174.844 278.768 1185.479 289.404 1185.478 302.523 L 1185.478 561.299 L 1258.432 677.804 Z" style="fill: rgb(26, 24, 49);"/>
  <path d="M 753.282 295.349 C 749.011 295.354 745.55 298.816 745.545 303.087 L 745.545 537.423 C 745.55 541.695 749.011 545.156 753.282 545.161 L 1165.582 545.161 C 1169.853 545.156 1173.314 541.695 1173.319 537.423 L 1173.319 303.087 C 1173.314 298.816 1169.853 295.354 1165.582 295.349 L 753.282 295.349 Z" fill="#fff"/>
  <path d="M 755.01 576.111 C 753.716 576.113 752.54 576.866 751.997 578.041 L 730.642 624.466 C 729.631 626.663 731.236 629.168 733.654 629.168 L 1182.746 629.168 C 1185.212 629.168 1186.815 626.574 1185.712 624.369 L 1162.499 577.944 C 1161.94 576.818 1160.791 576.107 1159.534 576.111 L 755.01 576.111 Z" fill="#2f2e41"/>
  <circle cx="957.774" cy="286.507" r="4.974" fill="#fff"/>
  <path d="M 913.632 638.011 C 912.134 638.013 910.822 639.018 910.43 640.465 L 905.074 660.361 C 904.506 662.468 906.093 664.54 908.275 664.54 L 1010.149 664.54 C 1012.429 664.54 1014.028 662.293 1013.282 660.139 L 1006.395 640.242 C 1005.932 638.907 1004.674 638.012 1003.261 638.011 L 913.632 638.011 Z" fill="#2f2e41"/>
  <polygon points="1185.478 555.662 1185.478 560.083 729.738 560.083 730.081 559.531 730.081 555.662 1185.478 555.662" fill="#2f2e41"/>
  <circle cx="1172.767" cy="295.902" r="77.375" style="fill: rgb(43, 103, 119);"/>
  <path d="M 1204.822 329.616 L 1140.711 329.616 C 1138.27 329.613 1136.292 327.635 1136.29 325.194 L 1136.29 286.507 C 1136.292 284.066 1138.271 282.088 1140.711 282.085 L 1204.822 282.085 C 1207.263 282.088 1209.241 284.066 1209.244 286.507 L 1209.244 325.194 C 1209.241 327.635 1207.263 329.613 1204.822 329.616 Z M 1140.711 286.507 L 1140.711 325.194 L 1204.825 325.194 L 1204.822 286.507 L 1140.711 286.507 Z" fill="#fff"/>
  <path d="M 1192.663 286.507 L 1152.87 286.507 L 1152.87 268.821 C 1152.87 256.011 1161.238 246.714 1172.767 246.714 C 1184.295 246.714 1192.663 256.011 1192.663 268.821 L 1192.663 286.507 Z M 1157.292 282.085 L 1188.242 282.085 L 1188.242 268.821 C 1188.242 258.408 1181.878 251.135 1172.767 251.135 C 1163.655 251.135 1157.292 258.408 1157.292 268.821 L 1157.292 282.085 Z" fill="#fff"/>
  <circle cx="1172.767" cy="304.745" r="4.421" fill="#fff"/>
  <path d="M 1118.752 465.676 L 800.112 465.676 C 796.855 465.673 794.215 463.033 794.212 459.776 L 794.212 380.735 C 794.215 377.477 796.855 374.838 800.112 374.834 L 1118.752 374.834 C 1122.009 374.838 1124.649 377.477 1124.653 380.735 L 1124.653 459.776 C 1124.649 463.033 1122.009 465.673 1118.752 465.676 Z M 800.112 377.194 C 798.158 377.196 796.574 378.78 796.572 380.735 L 796.572 459.776 C 796.574 461.73 798.158 463.314 800.112 463.316 L 1118.752 463.316 C 1120.707 463.314 1122.29 461.73 1122.293 459.776 L 1122.293 380.735 C 1122.29 378.78 1120.707 377.196 1118.752 377.194 L 800.112 377.194 Z" fill="#e6e6e6"/>
  <circle cx="849.622" cy="417.222" r="24.036" fill="#e6e6e6"/>
  <path d="M 905.135 401.198 C 902.051 401.193 900.119 404.529 901.656 407.202 C 902.372 408.446 903.699 409.213 905.135 409.21 L 1093.993 409.21 C 1097.077 409.21 1099.004 405.872 1097.462 403.201 C 1096.747 401.962 1095.424 401.198 1093.993 401.198 L 905.135 401.198 Z" fill="#e6e6e6"/>
  <path d="M 905.135 425.235 C 902.051 425.235 900.124 428.573 901.666 431.244 C 902.381 432.483 903.704 433.247 905.135 433.247 L 986.401 433.247 C 989.485 433.247 991.413 429.908 989.871 427.238 C 989.155 425.998 987.832 425.235 986.401 425.235 L 905.135 425.235 Z" fill="#e6e6e6"/>
  <path d="M 728.954 426.855 L 670.051 458.171 L 669.306 432.074 C 688.531 428.865 706.822 423.277 723.735 414.18 L 729.895 398.96 C 732.832 391.704 742.463 390.233 747.432 396.282 C 750.88 400.479 750.483 406.631 746.523 410.351 L 728.954 426.855 Z" style="fill: rgb(255, 211, 211);"/>
  <path d="M 585.03 607.66 C 584.161 604.472 584.696 601.065 586.5 598.297 L 599.439 578.439 C 605.779 568.709 618.459 565.364 628.774 570.7 C 623.336 579.956 624.094 588.076 630.652 595.133 C 620.472 600.103 611.062 606.518 602.716 614.178 C 596.147 618.657 587.122 615.33 585.03 607.66 Z" fill="#2f2e41"/>
  <path d="M 731.637 581.695 C 727.655 588.332 720.505 592.416 712.766 592.475 L 626.806 593.126 L 623.078 571.503 L 661.104 560.319 L 629.043 535.714 L 664.086 494.705 L 727.736 554.03 C 735.403 561.175 737.029 572.709 731.637 581.695 Z" fill="#2f2e41"/>
  <path d="M 613.385 729.572 L 593.253 729.572 C 575.178 605.674 556.78 481.43 611.148 435.057 L 675.27 445.495 L 667.069 499.925 L 631.279 540.933 L 613.385 729.572 Z" fill="#2f2e41"/>
  <path d="M 631.081 757.639 C 627.894 758.508 624.487 757.974 621.718 756.17 L 599.86 753.232 C 590.129 746.892 586.783 734.212 592.119 723.897 C 601.375 729.335 609.496 728.576 616.552 722.018 C 621.538 732.085 629.753 731.471 637.599 739.953 C 642.078 746.522 638.752 755.547 631.081 757.639 Z" fill="#2f2e41"/>
  <path d="M 661.104 352.294 L 623.823 343.347 C 630.015 330.673 630.525 316.571 627.551 301.593 L 652.902 300.847 C 653.696 319.473 656.1 336.874 661.104 352.294 Z" style="fill: rgb(255, 211, 211);"/>
  <path d="M 671.35 467.945 C 644.211 486.438 625.036 468.578 610.402 441.022 C 612.436 424.16 609.143 403.981 603.046 382.055 C 597.424 362.008 608.065 340.99 627.551 333.654 L 659.613 347.075 C 686.836 369.265 692.195 393.302 681.981 418.653 L 671.35 467.945 Z" style="fill: rgb(43, 103, 119);"/>
  <path d="M 593.253 370.934 L 563.429 386.592 L 616.367 417.908 L 623.733 436.077 C 625.808 441.196 623.166 447.008 617.944 448.808 C 611.91 450.889 605.557 446.635 605.182 440.264 L 604.438 427.601 L 537.154 405.397 C 532.56 403.881 528.92 400.337 527.281 395.786 C 524.857 389.052 527.283 381.531 533.184 377.483 L 587.289 340.365 L 593.253 370.934 Z" style="fill: rgb(255, 211, 211);"/>
  <path d="M 623.078 373.917 C 610.639 368.466 599.328 374.387 585.052 379.136 L 582.815 339.619 C 596.991 332.063 610.507 330.026 623.078 335.891 L 623.078 373.917 Z" style="fill: rgb(43, 103, 119);"/>
  <circle cx="637.957" cy="296.619" r="23.802" style="fill: rgb(255, 211, 211);"/>
  <path d="M 666.432 293.616 C 642.866 295.924 624.909 292.07 613.432 281.096 L 613.432 272.258 L 664.432 272.258 L 666.432 293.616 Z" fill="#2f2e41"/>
</svg>