<?xml version="1.0" encoding="utf-8"?>
<svg viewBox="13.425 13.829 35.489 30.964" width="35.489" height="30.964" xmlns="http://www.w3.org/2000/svg">
  <g transform="matrix(0.036212, 0, 0, 0.031584, 13.063072, 13.519328)" style="">
    <g transform="translate(0.000000,511.000000) scale(0.100000,-0.100000)">
      <path d="M4646.1,5006.3c-714.1-70.8-1241.7-216.6-1822.9-501.8c-1447.6-712-2434-2075.9-2685-3710c-51.5-341-51.5-1033.7,2.2-1372.5C222-1116.3,367.8-1586,593-2047.1c246.6-508.3,512.6-875,932.9-1299.6c767.7-774.2,1689.9-1237.4,2787.9-1406.8c341-51.5,1033.7-51.5,1372.5,2.2c860,130.8,1589.1,435.3,2273.2,943.6c233.8,173.7,707.7,634.8,887.8,864.2c531.8,679.8,879.3,1488.3,1014.4,2365.4c51.5,341,51.5,1033.7-2.2,1372.5c-130.8,860-433.2,1587-943.6,2273.2c-195.1,263.8-675.5,744.2-935,939.3c-699.1,519-1439,832.1-2273.2,958.6C5489,4997.7,4822,5023.5,4646.1,5006.3z M5686.2,4408C7129.5,4165.7,8324,3269.2,8954.5,1952.5C9540,730.1,9510-736.7,8870.9-1944.1C7908-3762.7,5853.5-4663.4,3865.5-4135.8c-1960.1,519-3313.3,2354.7-3234,4383.4c27.9,682,178,1254.6,486.8,1848.6c682,1308.2,1923.7,2161.7,3409.8,2344C4759.8,4468,5446.1,4448.7,5686.2,4408z" style="fill: rgb(41, 57, 74);"/>
      <path d="M4729.8,2713.8c-272.4-60-478.2-195.2-514.7-345.3c-30-115.8,141.5-1276,323.8-2185.3c171.6-855.7,308.8-1314.6,420.3-1417.5c34.3-30,45-32.2,75.1-8.6C5180.1-1118.5,5386-325,5600.5,955.3c128.7,765.6,203.7,1338.2,184.4,1413.2C5718.4,2634.5,5178,2812.5,4729.8,2713.8z" style="fill: rgb(41, 57, 74);"/>
      <path d="M4804.8-1731.8c-92.2-47.2-126.5-81.5-173.7-173.7c-72.9-139.4-75.1-235.9-8.6-381.7c40.7-83.6,75.1-124.4,152.3-169.4c150.1-85.8,272.4-92.2,418.2-15c94.3,49.3,128.7,83.6,178,178c77.2,145.8,70.8,268.1-15,418.2c-45,77.2-85.8,111.5-169.4,152.3C5040.7-1656.7,4944.2-1658.9,4804.8-1731.8z" style="fill: rgb(41, 57, 74);"/>
    </g>
  </g>
</svg>